<mxfile host="65bd71144e">
    <diagram id="11ZA8Jts7P7Ydy9zVvFv" name="Page-1">
        <mxGraphModel dx="1272" dy="693" grid="1" gridSize="10" guides="1" tooltips="1" connect="1" arrows="1" fold="1" page="1" pageScale="1" pageWidth="827" pageHeight="1169" math="0" shadow="0">
            <root>
                <mxCell id="0"/>
                <mxCell id="1" parent="0"/>
                <mxCell id="2" value="Customer" style="swimlane;whiteSpace=wrap;html=1;" vertex="1" parent="1">
                    <mxGeometry x="120" y="140" width="200" height="200" as="geometry"/>
                </mxCell>
                <mxCell id="5" value="&lt;br&gt;Daniel Whitmore&lt;br&gt;102467" style="rounded=0;whiteSpace=wrap;html=1;align=left;strokeColor=none;" vertex="1" parent="2">
                    <mxGeometry y="55" width="200" height="90" as="geometry"/>
                </mxCell>
                <mxCell id="3" value="Product" style="swimlane;whiteSpace=wrap;html=1;" vertex="1" parent="1">
                    <mxGeometry x="510" y="140" width="200" height="200" as="geometry"/>
                </mxCell>
                <mxCell id="6" value="" style="rounded=0;whiteSpace=wrap;html=1;" vertex="1" parent="3">
                    <mxGeometry y="20" width="200" height="180" as="geometry"/>
                </mxCell>
                <mxCell id="8" value="Croissant&lt;div&gt;10437223&lt;/div&gt;" style="rounded=0;whiteSpace=wrap;html=1;align=left;strokeColor=none;" vertex="1" parent="3">
                    <mxGeometry y="65" width="200" height="90" as="geometry"/>
                </mxCell>
                <mxCell id="4" value="" style="endArrow=oval;startArrow=oval;html=1;exitX=1;exitY=0.5;exitDx=0;exitDy=0;entryX=0;entryY=0.5;entryDx=0;entryDy=0;startFill=1;endFill=1;" edge="1" parent="1" source="2" target="3">
                    <mxGeometry width="50" height="50" relative="1" as="geometry">
                        <mxPoint x="400" y="250" as="sourcePoint"/>
                        <mxPoint x="450" y="200" as="targetPoint"/>
                    </mxGeometry>
                </mxCell>
            </root>
        </mxGraphModel>
    </diagram>
</mxfile>